<?xml version="1.0" encoding="utf-8"?>
<!-- Generator: Adobe Illustrator 26.0.2, SVG Export Plug-In . SVG Version: 6.00 Build 0)  -->
<svg version="1.1" xmlns="http://www.w3.org/2000/svg" xmlns:xlink="http://www.w3.org/1999/xlink" x="0px" y="0px"
	 viewBox="0 0 1224 792" style="enable-background:new 0 0 1224 792;" xml:space="preserve">
<style type="text/css">
	.st0{fill:none;}
	.st1{fill:#FFFFFF;}
	.st2{fill:url(#New_Pattern);}
	.st3{fill:#981B1E;}
	.st4{fill:#55181A;}
	.st5{fill:#771214;}
	.st6{clip-path:url(#SVGID_00000176739195127416083390000009672777761609426060_);}
	.st7{clip-path:url(#SVGID_00000053513528807491097700000005923356475259157384_);}
	.st8{fill:#FFDBAC;stroke:#000000;stroke-miterlimit:10;}
	.st9{fill:#FFDBAC;}
	.st10{clip-path:url(#SVGID_00000170250512882329005960000001904191560476891527_);}
	.st11{clip-path:url(#SVGID_00000003795216566927892710000016499475180400638603_);}
	.st12{fill:#FFFFFF;stroke:#000000;stroke-miterlimit:10;}
	.st13{font-family:'LucidaFax-DemiItalic';}
	.st14{font-size:163px;}
	.st15{fill:none;stroke:#000000;stroke-miterlimit:10;}
	.st16{fill:#ED2024;stroke:#000000;stroke-miterlimit:10;}
	.st17{stroke:#000000;stroke-miterlimit:10;}
	.st18{fill:#FFFFFF;stroke:#FFFFFF;stroke-miterlimit:10;}
	.st19{fill:none;stroke:#000000;stroke-width:2;stroke-miterlimit:10;}
	.st20{stroke:#000000;stroke-width:3;stroke-miterlimit:10;}
	.st21{fill:none;stroke:#000000;stroke-width:3;stroke-miterlimit:10;}
	.st22{fill:none;stroke:#FFFFFF;stroke-miterlimit:10;}
	.st23{font-size:33px;}
</style>
<pattern  width="711.11" height="681.48" patternUnits="userSpaceOnUse" id="New_Pattern" viewBox="59.26 -681.48 711.11 681.48" style="overflow:visible;">
	<g>
		<rect x="59.26" y="-681.48" class="st0" width="711.11" height="681.48"/>
		<g>
			<rect x="592.59" y="-340.74" class="st1" width="118.52" height="170.37"/>
			<rect x="592.59" y="-170.37" width="118.52" height="170.37"/>
			<rect x="711.11" y="-340.74" width="118.52" height="170.37"/>
			<rect x="711.11" y="-170.37" class="st1" width="118.52" height="170.37"/>
		</g>
		<g>
			<rect x="237.04" y="-170.37" class="st1" width="118.52" height="170.37"/>
			<rect x="355.56" y="-170.37" width="118.52" height="170.37"/>
			<rect x="474.07" y="-170.37" class="st1" width="118.52" height="170.37"/>
		</g>
		<g>
			<rect y="-340.74" width="118.52" height="170.37"/>
			<rect y="-170.37" class="st1" width="118.52" height="170.37"/>
			<rect x="118.52" y="-340.74" class="st1" width="118.52" height="170.37"/>
			<rect x="118.52" y="-170.37" width="118.52" height="170.37"/>
		</g>
		<g>
			<rect x="592.59" y="-681.48" class="st1" width="118.52" height="170.37"/>
			<rect x="592.59" y="-511.11" width="118.52" height="170.37"/>
			<rect x="711.11" y="-681.48" width="118.52" height="170.37"/>
			<rect x="711.11" y="-511.11" class="st1" width="118.52" height="170.37"/>
		</g>
		<g>
			<rect x="237.04" y="-511.11" class="st1" width="118.52" height="170.37"/>
			<rect x="237.04" y="-340.74" width="118.52" height="170.37"/>
			<rect x="355.56" y="-511.11" width="118.52" height="170.37"/>
			<rect x="355.56" y="-340.74" class="st1" width="118.52" height="170.37"/>
			<rect x="474.07" y="-511.11" class="st1" width="118.52" height="170.37"/>
			<rect x="474.07" y="-340.74" width="118.52" height="170.37"/>
		</g>
		<g>
			<rect y="-681.48" width="118.52" height="170.37"/>
			<rect y="-511.11" class="st1" width="118.52" height="170.37"/>
			<rect x="118.52" y="-681.48" class="st1" width="118.52" height="170.37"/>
			<rect x="118.52" y="-511.11" width="118.52" height="170.37"/>
		</g>
		<g>
			<rect x="237.04" y="-681.48" width="118.52" height="170.37"/>
			<rect x="355.56" y="-681.48" class="st1" width="118.52" height="170.37"/>
			<rect x="474.07" y="-681.48" width="118.52" height="170.37"/>
		</g>
	</g>
</pattern>
<g id="vertical">
</g>
<g id="horizontal">
	<rect class="st2" width="1224" height="791.89"/>
	<rect x="731.75" y="610.2" class="st1" width="476.54" height="132.1"/>
	<g>
		<g>
			<path class="st3" d="M1033.04,523.18c-1.69-0.28-3.45,0.72-4.91,2.55c-0.73,0.91-1.38,2.03-1.92,3.3
				c-0.56,1.26-1.03,2.64-1.33,4.14c-0.3,1.5-0.42,2.96-0.37,4.33c0.03,1.35,0.19,2.58,0.52,3.68c0.65,2.18,1.89,3.75,3.56,4.14
				c1.67,0.4,3.46-0.46,5.02-2.2c0.77-0.87,1.51-1.95,2.1-3.22c0.58-1.28,1.04-2.73,1.36-4.29c0.31-1.56,0.45-3.07,0.4-4.48
				c-0.07-1.43-0.31-2.75-0.68-3.88C1036.04,524.98,1034.73,523.46,1033.04,523.18z M1157.91,561.27c-1.81-0.37-3.78,0.95-5.51,3.35
				c-1.75,2.41-3.35,5.9-4.28,9.94c-0.45,2.02-0.77,3.99-0.91,5.83c-0.13,1.84-0.08,3.55,0.16,5.04c0.47,2.98,1.64,5.09,3.42,5.59
				c1.78,0.5,3.84-0.72,5.73-3.14c0.95-1.21,1.85-2.71,2.65-4.44c0.81-1.73,1.51-3.68,1.97-5.76c0.96-4.17,1.13-8.12,0.52-11.09
				C1161.02,563.64,1159.72,561.64,1157.91,561.27z M1175.28,455.93c0.28-7-2.4-12.65-5.91-12.76c-3.51-0.11-6.51,5.33-6.79,12.25
				c-0.25,6.89,2.27,12.75,5.79,12.91c1.75,0.09,3.41-1.26,4.67-3.51C1174.29,462.57,1175.16,459.4,1175.28,455.93z M1053.58,436.42
				c-2.57-0.09-4.76,4.64-4.98,10.43c-0.11,2.89,0.31,5.53,1.07,7.46c0.75,1.92,1.85,3.13,3.13,3.18c1.28,0.06,2.49-1.05,3.41-2.91
				c0.91-1.87,1.53-4.49,1.64-7.4C1058.08,441.35,1056.13,436.48,1053.58,436.42z M1220.62,316.51c-0.9,1.82-1.79,3.76-2.77,5.65
				c-0.97,1.91-2.05,3.75-3.11,5.7l-0.1,1.37c-0.16,1.82-0.44,3.61-0.82,5.38c-0.39,1.76-0.83,3.58-1.41,5.33
				c-0.57,1.76-1.25,3.48-2.01,5.21c-0.75,1.75-1.6,3.46-2.55,5.15c-0.99,6.94-1.95,14.23-2.79,21.71
				c-1.58,17.41-2.57,36.07-2.66,55.6c-0.04,4.95,0.02,9.81,0.1,14.86l0.19,7.53c0.07,2.55,0.16,5.1,0.27,7.65l0.37,7.73
				c0.13,2.6,0.3,5.19,0.48,7.79c0.16,2.64,0.34,5.28,0.55,7.92c0.22,2.66,0.44,5.32,0.66,7.99c0.32,2.57,0.65,5.24,0.99,7.96
				c0.29,2.77,0.54,5.63,0.77,8.54c1.01,13.85,0.59,26.63-3.06,35.45c-1.72,4.42-4.13,7.76-7.06,9.9c-2.89,2.13-6.16,2.97-9.5,2.39
				c-3.16-0.56-5.85-2.3-7.86-4.93c-1.01-1.31-1.82-2.86-2.5-4.57c-0.68-1.71-1.16-3.62-1.43-5.68c-0.31-2.07-0.39-4.31-0.31-6.69
				c0.05-2.36,0.27-4.86,0.65-7.49c0.39-2.64,0.92-5.39,1.49-8.22c0.59-2.84,1.32-5.79,2.11-8.82l-0.05,0l0.22-0.7
				c0.26-1,0.52-2.02,0.79-3.05c0.75-2.85,1.55-5.66,2.31-8.37c0.76-2.69,1.5-5.32,2.21-7.85c3.28-14.16,5.29-28.28,6.5-42.07
				c0,0-0.49-1.82-1.4-4.53c-0.9-2.73-2.27-6.24-4-9.79c-3.45-7.09-8.41-13.93-14.29-13.9c-5.89,0.07-10.62,7.89-13.93,15.84
				c-1.64,3.94-2.95,7.94-3.83,10.93c-0.88,2.98-1.36,4.98-1.36,4.98c0.54,8.19,1.43,16.42,2.67,24.76
				c0.79,3.95,1.66,8.15,2.28,12.6c0.38,2.63,0.68,5.19,0.89,7.66c0.18,2.48,0.25,4.87,0.19,7.12c-0.09,4.5-0.83,8.54-2.32,11.79
				c-0.7,1.63-1.6,3.07-2.65,4.29c-1.08,1.23-2.32,2.25-3.67,3.03c-2.71,1.56-5.89,2.19-9.25,1.76c-3.19-0.41-5.99-1.69-8.2-3.63
				c-2.2-1.94-3.79-4.53-4.63-7.6c-1.77-6.16-0.33-14.26,2.26-23.43l-0.05,0l0.2-0.53c0.23-0.77,0.45-1.54,0.69-2.32
				c1.35-4.36,2.67-8.52,3.99-12.41c1.19-4.43,2.16-8.86,3.03-13.34c0,0-0.29-1.7-0.82-4.25c-0.54-2.54-1.28-5.96-2.28-9.35
				c-1.97-6.8-4.76-13.59-7.87-13.85c-3.1-0.27-5.37,8.49-6.94,17.32c-1.57,8.83-2.5,17.74-2.5,17.74l-0.28-0.24
				c-0.63,17.32-0.56,34.74,0.93,52.49c0.27,1.95,0.55,3.97,0.8,6.05c0.21,2.08,0.41,4.22,0.57,6.4c0.42,5.17,0.36,10.07-0.1,14.42
				c-0.49,4.35-1.62,8.15-3.36,11.12c-3.45,5.99-9.76,8.51-16.33,6.92c-6.25-1.52-10.67-6.08-11.69-11.96
				c-0.64-2.98-0.43-6.32,0.4-9.96c0.72-3.67,2.12-7.63,3.75-11.87l-0.04-0.01l0.23-0.49c0.28-0.71,0.56-1.42,0.84-2.15
				c0.81-2.01,1.64-3.99,2.47-5.91c0.81-1.93,1.6-3.82,2.36-5.63c6.53-18.47,9.02-38.12,9.76-57.59l-0.43-0.36
				c0,0-0.19-1.89-0.64-4.74c-0.45-2.85-1.15-6.66-2.24-10.49c-2.13-7.67-5.68-15.44-11.03-15.93c-3.83-0.35-6.75,3.49-8.92,8.56
				c-2.2,5.05-3.63,11.32-4.54,15.84c0.52,8.94,1.23,17.79,2.32,26.63c0.7,4.38,1.5,9.12,2.01,13.98
				c1.33,11.58,1.17,21.85-2.05,28.72c-1.57,3.43-3.88,6.01-6.63,7.57c-2.74,1.57-6,2.1-9.33,1.55c-3.18-0.53-5.89-1.94-8.03-4.02
				c-2.15-2.09-3.67-4.83-4.34-8.05c-0.75-3.23-0.78-7.01-0.14-11.15c0.28-2.1,0.69-4.31,1.23-6.6c0.27-1.15,0.57-2.31,0.89-3.5
				c0.3-1.2,0.63-2.43,0.98-3.67l-0.05,0l0.21-0.57c0.24-0.83,0.49-1.67,0.74-2.52c0.72-2.37,1.44-4.7,2.13-6.98
				c0.72-2.29,1.43-4.52,2.11-6.66c2.14-8.55,3.77-17.27,4.9-26.21c0-0.03-0.1-0.57-0.28-1.52c-0.18-0.95-0.44-2.28-0.8-3.9
				c-0.72-3.25-1.73-7.54-3.07-11.96c-2.66-8.8-6.48-18-10.93-19.17c-4.48-1.19-7.82,5.55-10.07,12.49
				c-1.13,3.44-1.97,6.98-2.54,9.61c-0.58,2.62-0.87,4.39-0.87,4.39c0.39,2.53,0.84,5.09,1.31,7.58c0.89,3.51,1.85,7.35,2.61,11.2
				c0.46,2.3,0.84,4.54,1.13,6.7c0.27,2.13,0.43,4.17,0.45,6.1c0.07,3.88-0.48,7.25-1.82,10c-2.48,5.55-8.35,8.34-15.08,7.76
				c-3.2-0.29-6.07-1.29-8.37-2.84c-1.15-0.78-2.16-1.69-2.99-2.72c-0.84-1.05-1.53-2.23-2.01-3.51
				c-2.06-5.12-0.96-12.01,1.35-20.16l-0.05,0l0.18-0.47c0.2-0.68,0.41-1.37,0.61-2.06c1.21-3.82,2.44-7.7,3.67-11.2
				c0.69-2.51,1.28-5.14,1.84-7.72c0.56-2.59,1.06-5.2,1.49-7.87c0,0-0.27-2.11-0.86-5.59c-0.59-3.5-1.51-8.41-2.79-14.02
				c-2.58-11.18-6.59-25.44-12.3-36.43c-1.27-2.48-2.32-5.34-3.1-8.68c-3.31-9.45-3.12-23.06-1.92-34.46
				c0.32-2.88,0.69-5.6,1.07-8.05c0.37-2.45,0.75-4.65,1.13-6.53c0.73-3.73,1.28-6,1.28-6c0.25-3,0.74-6.04,1.38-9.01
				c0.65-2.98,1.4-5.84,2.39-8.72c-1.33-3.33-2.29-6.91-2.29-8.48c-0.02-2.55,0.1-6.05,0.61-9.42c0.52-3.38,1.36-6.58,3.06-8.71
				c3.51-4.43,9.47-6.2,13.78-9.77c3.14-2.58,5.33-6,7.6-9.29c2.27-3.29,4.78-6.49,8.27-8.5c3.19-1.82,6.82-2.45,10.57-2.86
				c3.77-0.41,7.63-0.59,11.23-1.48c5-1.23,9.48-3.8,14.6-4.26c4.86-0.43,9.82,0.98,14.74,1.22c5.02,0.25,9.99-0.66,14.89-1.19
				c4.9-0.54,9.74-0.7,14.57,0.84c2.23,0.71,4.37,1.77,6.16,3.16c1.34,1.06,9.09,6.18,10.4,7.2c5.45,4.34,11.47,5.13,17.2,6.18
				c5.73,1.02,11.17,2.31,15.67,6.86c2.3,2.33,3.64,5.06,6.33,7.21c3.07,2.45,7.44,3.83,11.26,5.64c3.33,1.58,6.28,3.51,8.7,5.61
				c2.46,2.14,4.37,4.44,5.52,6.75c1.36,2.77,1.93,5.86,5.12,8.21c2.51,1.84,6.33,2.97,8.41,4.91c2.43,2.26,1.71,4.71,0.85,7.15
				c-0.21,0.61-0.43,1.23-0.6,1.84c-0.16,0.63-0.26,1.27-0.28,1.89c-0.03,1.25,0.31,2.48,1.43,3.64c1.05,1.09,2.67,1.96,3.68,3.04
				C1222.6,311.65,1221.71,314.25,1220.62,316.51z M1192.49,369.4l-0.39,0.36l0.24,1l0.12,0.5c0.04,0.16,0.08,0.32,0.12,0.57
				L1192.49,369.4z"/>
		</g>
	</g>
	<g>
		<g>
			<path class="st3" d="M356.69,700.25c-3.43,0.03-6.18,5.01-6.13,11.13c0.05,6.12,2.85,11.06,6.29,11.04
				c3.43-0.02,6.19-5,6.14-11.13C362.95,705.17,360.13,700.22,356.69,700.25z M486.52,711.44c-3.7,0.03-6.66,4.84-6.62,10.74
				c0.04,5.91,3.06,10.68,6.76,10.66c3.7-0.02,6.66-4.83,6.63-10.74C493.25,716.18,490.22,711.41,486.52,711.44z M491.77,632.31
				c-0.07-5.45-2.98-9.83-6.49-9.79c-3.51,0.05-6.3,4.5-6.23,9.95c0.07,5.45,2.96,9.83,6.48,9.79
				C489.04,642.22,491.84,637.76,491.77,632.31z M369.31,621.44c-2.56,0.03-4.58,4.06-4.52,9c0.06,4.93,2.19,8.91,4.75,8.88
				c2.56-0.03,4.58-4.06,4.52-9C374,625.38,371.87,621.41,369.31,621.44z M528.45,496.08c-1.16,5.02-2.6,10-4.3,14.93l0.06,1.66
				c0.19,8.8-1.48,17.3-4.7,25.29c-0.44,7.96-0.89,16.05-1.33,24.2c-1.35,30.92-1.77,62.73,5.34,93.58
				c1.07,3.67,2.18,7.6,3.18,11.68c2.36,9.69,3.55,18.33,1.33,24.56c-2.05,6.23-7.54,10.03-14.32,10.09
				c-6.43,0.04-11.81-3.32-14.13-8.96c-2.49-5.64-1.91-13.57-0.08-22.6l-0.05,0l0.15-0.53c0.16-0.75,0.33-1.52,0.49-2.29
				c0.96-4.29,2.04-8.42,3.08-12.25c2.18-10.72,3.45-21.55,4.06-32.4c0,0-0.56-1.41-1.59-3.5c-1.02-2.09-2.51-4.87-4.37-7.64
				c-3.71-5.53-8.89-10.99-14.77-10.75c-5.88,0.24-10.35,6.8-13.35,13.29c-3,6.49-4.54,12.93-4.54,12.93
				c0.93,6.48,2.23,12.94,4.01,19.34c1.07,3.01,2.18,6.24,3.17,9.58c2.34,7.95,3.54,15.04,1.3,20.16
				c-2.06,5.12-7.55,8.26-14.33,8.32c-6.43,0.05-11.81-2.69-14.13-7.32c-2.48-4.63-1.91-11.14-0.06-18.56l-0.05,0l0.15-0.43
				c0.16-0.62,0.33-1.25,0.5-1.88c0.97-3.52,2.05-6.91,3.09-10.06c0.89-3.57,1.64-7.16,2.24-10.76c0,0-5.91-21.48-12.15-21.69
				c-6.23-0.21-7.79,28.79-7.79,28.79l-0.29-0.18c0.38,14.02,1.95,28.06,5.76,41.86c1.06,3.01,2.16,6.23,3.15,9.57
				c2.32,7.94,3.5,15.01,1.25,20.11c-2.07,5.1-7.57,8.22-14.35,8.27c-6.43,0.03-11.8-2.72-14.11-7.34
				c-2.47-4.62-1.88-11.11-0.01-18.51l-0.05,0l0.16-0.43c0.17-0.62,0.33-1.24,0.5-1.87c0.97-3.51,2.07-6.89,3.12-10.03
				c4-15.78,5.03-31.82,4.7-47.77l-0.45-0.28c0,0-4.48-24.55-15.23-24.99c-7.68-0.32-11.1,13.04-12.43,20.67
				c0.94,7.41,2.19,14.8,3.9,22.13c1.08,3.64,2.18,7.54,3.19,11.58c2.36,9.6,3.56,18.17,1.33,24.34
				c-2.04,6.17-7.54,9.95-14.32,10.01c-6.43,0.04-11.8-3.29-14.14-8.88c-2.49-5.59-1.91-13.45-0.08-22.4l-0.05,0l0.15-0.52
				c0.16-0.75,0.33-1.5,0.49-2.27c0.96-4.25,2.05-8.34,3.08-12.14c1.53-7.46,2.62-14.98,3.33-22.52c-0.01-0.02-0.13-0.48-0.35-1.26
				c-0.23-0.79-0.55-1.9-0.98-3.24c-0.85-2.68-2.06-6.24-3.56-9.85c-3-7.23-7.12-14.63-11.61-15.45
				c-9.03-1.65-12.48,22.52-12.48,22.52c0.5,2.13,1.04,4.26,1.64,6.39c1.07,2.98,2.19,6.18,3.18,9.5
				c2.35,7.88,3.56,14.91,1.33,19.99c-2.05,5.08-7.54,8.2-14.32,8.27c-6.43,0.06-11.81-2.66-14.14-7.24
				c-2.48-4.58-1.93-11.04-0.08-18.4l-0.05,0l0.15-0.43c0.16-0.61,0.33-1.24,0.49-1.87c0.96-3.49,2.04-6.86,3.08-9.99
				c1.12-4.46,2-8.94,2.67-13.43c0,0-5.6-28.18-18.01-44.58c-1.39-1.83-2.54-4.02-3.5-6.48c-3.79-8.58-4.46-20.72-4.22-30.73
				c0.26-10.01,1.45-17.87,1.45-17.87c-0.11-5.16,0.44-10.22,1.56-15.13c-1.8-2.55-3.27-5.31-3.5-6.58
				c-0.74-4.15-1.87-11.09,0.6-14.87c2.6-3.97,8.12-6.34,11.62-9.9c5.03-5.1,5.55-12.29,11.35-16.91c5.26-4.19,13.49-5.18,19.9-8.31
				c4.46-2.17,8.03-5.38,12.82-7.11c4.51-1.63,9.65-1.79,14.4-2.94c9.7-2.35,17.73-8.82,27.87-9.12c2.34-0.07,4.71,0.22,6.84,0.93
				c1.6,0.54,10.57,2.93,12.13,3.53c13.08,5.02,23.86-4.47,35.32,2.48c2.96,1.8,5.01,4.41,8.2,5.97c3.65,1.78,8.23,1.92,12.41,2.79
				c7.28,1.51,13.6,5.44,17.03,10.58c2.08,3.12,3.31,6.82,6.97,8.91c2.87,1.65,6.85,2.04,9.32,4.03c5.76,4.64-0.99,13.48,4.24,18.48
				c1.22,1.17,2.98,1.96,4.17,3.15C529.66,489.54,529.16,493.01,528.45,496.08z M505.49,560.05l-0.37,0.41l0.59,2.15L505.49,560.05z
				"/>
		</g>
	</g>
	<g>
		<g>
			<path class="st3" d="M75.38,336.53c-3.43,0.03-6.18,5.01-6.13,11.13c0.05,6.12,2.85,11.06,6.29,11.04
				c3.43-0.02,6.19-5,6.14-11.13C81.63,341.45,78.81,336.51,75.38,336.53z M205.21,347.72c-3.7,0.03-6.66,4.84-6.62,10.74
				c0.04,5.91,3.06,10.68,6.76,10.66s6.66-4.83,6.63-10.74C211.94,352.47,208.91,347.69,205.21,347.72z M210.45,268.6
				c-0.07-5.45-2.98-9.83-6.49-9.79c-3.51,0.05-6.3,4.5-6.23,9.95c0.07,5.45,2.96,9.83,6.48,9.79
				C207.72,278.5,210.53,274.05,210.45,268.6z M88,257.73c-2.56,0.03-4.58,4.06-4.52,9c0.06,4.93,2.19,8.91,4.75,8.88
				c2.56-0.03,4.58-4.06,4.52-9C92.68,261.67,90.56,257.69,88,257.73z M247.14,132.37c-1.16,5.02-2.6,10-4.3,14.93l0.06,1.66
				c0.19,8.8-1.48,17.3-4.7,25.29c-0.44,7.96-0.89,16.05-1.33,24.2c-1.35,30.92-1.77,62.73,5.34,93.58
				c1.07,3.67,2.18,7.6,3.18,11.68c2.36,9.69,3.55,18.33,1.33,24.56c-2.05,6.23-7.54,10.03-14.32,10.09
				c-6.43,0.04-11.81-3.32-14.13-8.96c-2.49-5.64-1.91-13.57-0.08-22.6l-0.05,0l0.15-0.53c0.16-0.75,0.33-1.52,0.49-2.29
				c0.96-4.29,2.04-8.42,3.08-12.25c2.18-10.72,3.45-21.55,4.06-32.4c0,0-0.56-1.41-1.59-3.5c-1.02-2.09-2.51-4.87-4.37-7.64
				c-3.71-5.53-8.89-10.99-14.77-10.75c-5.88,0.24-10.35,6.8-13.35,13.29c-3,6.49-4.54,12.93-4.54,12.93
				c0.93,6.48,2.23,12.94,4.01,19.34c1.07,3.01,2.18,6.24,3.17,9.58c2.34,7.95,3.54,15.04,1.3,20.16
				c-2.06,5.12-7.55,8.26-14.33,8.32c-6.43,0.05-11.81-2.69-14.13-7.32c-2.48-4.63-1.91-11.14-0.06-18.56l-0.05,0l0.15-0.43
				c0.16-0.62,0.33-1.25,0.5-1.88c0.97-3.52,2.05-6.91,3.09-10.06c0.89-3.57,1.64-7.16,2.24-10.76c0,0-5.91-21.48-12.15-21.69
				c-6.23-0.21-7.79,28.79-7.79,28.79l-0.29-0.18c0.38,14.02,1.95,28.06,5.76,41.86c1.06,3.01,2.16,6.23,3.15,9.57
				c2.32,7.94,3.5,15.01,1.25,20.11c-2.07,5.1-7.57,8.22-14.35,8.27c-6.43,0.04-11.8-2.72-14.11-7.34
				c-2.47-4.62-1.88-11.11-0.01-18.51l-0.05,0l0.16-0.43c0.17-0.62,0.33-1.24,0.5-1.87c0.97-3.51,2.07-6.89,3.12-10.03
				c4-15.78,5.03-31.82,4.7-47.77l-0.45-0.28c0,0-4.48-24.55-15.23-24.99c-7.68-0.32-11.1,13.04-12.43,20.67
				c0.94,7.41,2.19,14.8,3.9,22.13c1.08,3.64,2.18,7.54,3.19,11.58c2.36,9.6,3.56,18.17,1.33,24.34
				c-2.04,6.17-7.54,9.95-14.32,10.01c-6.43,0.04-11.8-3.29-14.14-8.88c-2.49-5.59-1.91-13.45-0.08-22.4l-0.05,0l0.15-0.52
				c0.16-0.75,0.33-1.5,0.49-2.27c0.96-4.25,2.05-8.34,3.08-12.14c1.53-7.46,2.62-14.98,3.33-22.52c-0.01-0.02-0.13-0.48-0.35-1.26
				c-0.23-0.79-0.55-1.9-0.98-3.24c-0.85-2.68-2.06-6.24-3.56-9.85c-3-7.22-7.12-14.63-11.61-15.45
				c-9.03-1.65-12.48,22.52-12.48,22.52c0.5,2.13,1.04,4.26,1.64,6.39c1.07,2.98,2.19,6.18,3.18,9.5
				c2.35,7.88,3.56,14.91,1.33,19.99c-2.05,5.08-7.54,8.2-14.32,8.27c-6.43,0.06-11.81-2.66-14.14-7.24
				c-2.48-4.58-1.93-11.04-0.08-18.4l-0.05,0l0.15-0.43c0.16-0.61,0.33-1.24,0.49-1.87c0.96-3.49,2.04-6.86,3.08-9.99
				c1.12-4.46,2-8.94,2.67-13.43c0,0-5.6-28.18-18.01-44.58c-1.39-1.83-2.54-4.02-3.5-6.48c-3.79-8.58-4.46-20.72-4.22-30.73
				c0.26-10.01,1.45-17.87,1.45-17.87c-0.11-5.16,0.44-10.22,1.56-15.13c-1.8-2.55-3.27-5.31-3.5-6.58
				c-0.74-4.15-1.87-11.09,0.6-14.87c2.6-3.97,8.12-6.34,11.62-9.9c5.03-5.1,5.55-12.29,11.35-16.91c5.26-4.19,13.49-5.18,19.9-8.31
				c4.46-2.17,8.03-5.38,12.82-7.11c4.51-1.63,9.65-1.79,14.4-2.94c9.7-2.35,17.73-8.82,27.87-9.12c2.34-0.07,4.71,0.21,6.84,0.93
				c1.6,0.54,10.57,2.93,12.13,3.53c13.08,5.02,23.86-4.47,35.32,2.48c2.96,1.8,5.01,4.41,8.2,5.97c3.65,1.78,8.23,1.92,12.41,2.79
				c7.28,1.51,13.6,5.44,17.03,10.58c2.08,3.12,3.31,6.82,6.97,8.91c2.87,1.65,6.85,2.04,9.32,4.03c5.76,4.64-0.99,13.48,4.24,18.48
				c1.22,1.17,2.98,1.96,4.17,3.15C248.35,125.82,247.85,129.3,247.14,132.37z M224.18,196.33l-0.37,0.41l0.59,2.15L224.18,196.33z"
				/>
		</g>
	</g>
	<g>
		<g>
			<path class="st3" d="M59.37,722.17c-3.43,0.02-6.18,5.71-6.14,12.7c0.04,6.99,2.86,12.64,6.3,12.62
				c3.43-0.02,6.18-5.71,6.14-12.7C65.62,727.8,62.8,722.15,59.37,722.17z M189.19,735.16c-3.7,0.02-6.66,5.46-6.62,12.14
				c0.04,6.68,3.07,12.08,6.77,12.06c3.7-0.02,6.66-5.46,6.62-12.14C195.92,740.54,192.89,735.14,189.19,735.16z M194.65,645.72
				c-0.04-6.16-2.92-11.14-6.43-11.12c-3.51,0.02-6.33,5.04-6.29,11.2s2.92,11.14,6.43,11.12
				C191.88,656.9,194.69,651.88,194.65,645.72z M72.26,632.33c-2.56,0.02-4.6,4.59-4.57,10.22c0.04,5.63,2.14,10.18,4.7,10.16
				c2.56-0.02,4.6-4.59,4.57-10.22C76.93,636.87,74.82,632.32,72.26,632.33z M232.8,501.32c-1.25,4.96-2.76,9.88-4.52,14.75
				l0.03,1.64c0.06,8.73-1.72,17.15-5.05,25.04c-0.54,7.9-1.08,15.92-1.63,24.01c-1.67,34.87-2.32,70.78,4.67,105.63
				c1.06,4.14,2.16,8.59,3.15,13.19c2.32,10.94,3.52,20.68,1.27,27.7c-2.06,7.01-7.55,11.3-14.33,11.35
				c-6.43,0.03-11.81-3.78-14.13-10.16c-2.48-6.38-1.9-15.34-0.03-25.54l-0.05,0l0.16-0.59c0.16-0.85,0.33-1.71,0.5-2.58
				c0.97-4.84,2.07-9.5,3.12-13.82c2.23-12.1,3.55-24.32,4.23-36.56c0,0-0.56-1.6-1.57-3.97c-1.01-2.37-2.48-5.53-4.32-8.67
				c-3.67-6.28-8.81-12.51-14.69-12.3c-11.77,0.41-18.07,29.5-18.07,29.5c0.89,7.35,2.15,14.67,3.91,21.93
				c1.06,3.41,2.15,7.07,3.13,10.87c2.31,9.01,3.49,17.04,1.24,22.82c-2.07,5.78-7.56,9.32-14.34,9.36
				c-6.43,0.04-11.8-3.1-14.12-8.36c-2.47-5.26-1.88-12.64,0-21.04l-0.05,0l0.16-0.49c0.17-0.7,0.33-1.41,0.5-2.13
				c0.98-3.99,2.08-7.83,3.14-11.39c0.91-4.05,1.67-8.11,2.29-12.18c0,0-5.79-24.4-12.02-24.7c-6.23-0.3-7.95,32.61-7.95,32.61
				l-0.29-0.21c0.32,15.92,1.83,31.86,5.63,47.54c1.06,3.41,2.15,7.07,3.13,10.87c2.31,9.01,3.49,17.04,1.24,22.82
				c-2.07,5.78-7.56,9.32-14.34,9.36c-6.43,0.04-11.8-3.1-14.12-8.36c-2.47-5.26-1.88-12.64,0-21.04l-0.05,0l0.16-0.49
				c0.17-0.7,0.33-1.41,0.5-2.13c0.98-3.99,2.08-7.83,3.14-11.39c4.03-17.91,5.12-36.13,4.87-54.25l-0.44-0.32
				c0,0-4.33-27.93-15.07-28.54c-7.68-0.44-11.19,14.73-12.56,23.4c0.89,8.44,2.12,16.86,3.8,25.21c1.06,4.15,2.16,8.59,3.15,13.19
				c2.32,10.94,3.52,20.68,1.27,27.7c-2.06,7.01-7.55,11.3-14.33,11.35c-6.43,0.03-11.81-3.78-14.13-10.16
				c-2.48-6.38-1.9-15.34-0.03-25.54l-0.05,0l0.16-0.59c0.16-0.85,0.33-1.71,0.5-2.58c0.97-4.84,2.07-9.5,3.12-13.82
				c1.56-8.5,2.68-17.05,3.44-25.63c-0.01-0.02-0.13-0.54-0.34-1.44c-0.22-0.9-0.54-2.17-0.96-3.7c-0.83-3.06-2.02-7.13-3.5-11.26
				c-2.95-8.26-7.01-16.74-11.5-17.73c-9.01-1.98-12.64,25.58-12.64,25.58c0.48,2.44,1.02,4.88,1.6,7.31
				c1.06,3.41,2.15,7.07,3.13,10.87c2.31,9.01,3.49,17.04,1.24,22.82c-2.07,5.78-7.56,9.32-14.34,9.36
				c-6.43,0.04-11.8-3.1-14.12-8.36c-2.47-5.26-1.88-12.64,0-21.04l-0.05,0l0.16-0.49c0.17-0.7,0.33-1.41,0.5-2.13
				c0.98-3.99,2.08-7.83,3.14-11.39c1.14-5.09,2.05-10.2,2.76-15.33c0,0-5.4-32.26-17.64-51.18c-1.37-2.12-2.5-4.64-3.43-7.47
				c-7.38-17.37-2.14-49-2.14-49c-0.03-5.2,0.58-10.29,1.79-15.22c-1.76-2.59-3.18-5.4-3.39-6.68c-0.67-4.19-1.69-11.21,0.85-14.97
				c2.66-3.95,8.23-6.24,11.79-9.76c5.11-5.05,5.78-12.27,11.67-16.8c5.34-4.11,13.58-4.95,20.05-7.96c4.5-2.1,8.14-5.25,12.96-6.88
				c4.54-1.54,9.68-1.59,14.45-2.65c9.75-2.16,17.9-8.47,28.05-8.56c2.34-0.02,4.7,0.31,6.82,1.08c1.59,0.57,10.51,3.15,12.06,3.78
				c12.98,5.28,23.95-3.96,35.26,3.2c2.92,1.85,4.92,4.5,8.08,6.11c3.61,1.84,8.19,2.08,12.35,3.02
				c7.25,1.65,13.49,5.68,16.83,10.85c2.02,3.14,3.18,6.84,6.79,8.99c2.84,1.69,6.81,2.15,9.25,4.17c5.68,4.7-1.23,13.37,3.91,18.42
				c1.2,1.18,2.95,1.99,4.12,3.19C234.11,494.84,233.56,498.28,232.8,501.32z M208.96,564.53l-0.38,0.4
				c0.19,0.73,0.38,1.35,0.57,2.18L208.96,564.53z"/>
		</g>
	</g>
	<g>
		<g>
			<path class="st3" d="M818.75,298.58c-3.43,0.02-6.18,5.71-6.14,12.7c0.04,6.99,2.86,12.64,6.3,12.62
				c3.43-0.02,6.18-5.71,6.14-12.7C825,304.21,822.18,298.56,818.75,298.58z M948.57,311.57c-3.7,0.02-6.66,5.46-6.62,12.14
				c0.04,6.68,3.07,12.08,6.77,12.06c3.7-0.02,6.66-5.46,6.62-12.14C955.3,316.95,952.27,311.55,948.57,311.57z M954.03,222.13
				c-0.04-6.16-2.92-11.14-6.43-11.12c-3.51,0.02-6.33,5.04-6.29,11.2s2.92,11.14,6.43,11.12
				C951.25,233.31,954.07,228.29,954.03,222.13z M831.64,208.74c-2.56,0.02-4.6,4.59-4.57,10.22c0.04,5.63,2.14,10.18,4.7,10.16
				c2.56-0.02,4.6-4.59,4.57-10.22C836.3,213.28,834.2,208.73,831.64,208.74z M992.17,77.73c-1.25,4.96-2.76,9.88-4.52,14.75
				l0.03,1.64c0.06,8.73-1.72,17.15-5.05,25.04c-0.54,7.9-1.08,15.92-1.63,24.01c-1.67,34.87-2.32,70.78,4.67,105.63
				c1.06,4.14,2.16,8.59,3.15,13.19c2.32,10.94,3.52,20.68,1.27,27.7c-2.06,7.01-7.55,11.3-14.33,11.35
				c-6.43,0.03-11.81-3.78-14.13-10.16c-2.48-6.38-1.9-15.34-0.03-25.54l-0.05,0l0.16-0.59c0.16-0.85,0.33-1.71,0.5-2.58
				c0.97-4.84,2.07-9.5,3.12-13.82c2.23-12.1,3.55-24.32,4.23-36.56c0,0-0.56-1.6-1.57-3.97c-1.01-2.37-2.48-5.53-4.32-8.67
				c-3.67-6.28-8.81-12.51-14.69-12.3c-11.77,0.41-18.07,29.5-18.07,29.5c0.89,7.35,2.15,14.67,3.91,21.93
				c1.06,3.41,2.15,7.07,3.13,10.87c2.31,9.01,3.49,17.04,1.24,22.82c-2.07,5.78-7.56,9.32-14.34,9.36
				c-6.43,0.04-11.8-3.1-14.12-8.36c-2.47-5.26-1.88-12.64,0-21.04l-0.05,0l0.16-0.49c0.17-0.7,0.33-1.41,0.5-2.13
				c0.98-3.99,2.08-7.83,3.14-11.39c0.91-4.05,1.67-8.11,2.29-12.18c0,0-5.79-24.4-12.02-24.7c-6.23-0.3-7.95,32.61-7.95,32.61
				l-0.29-0.21c0.32,15.92,1.83,31.86,5.63,47.54c1.06,3.41,2.15,7.07,3.13,10.87c2.31,9.01,3.49,17.04,1.24,22.82
				c-2.07,5.78-7.56,9.32-14.34,9.36c-6.43,0.04-11.8-3.1-14.12-8.36c-2.47-5.26-1.88-12.64,0-21.04l-0.05,0l0.16-0.49
				c0.17-0.7,0.33-1.41,0.5-2.13c0.98-3.99,2.08-7.83,3.14-11.39c4.03-17.91,5.12-36.13,4.87-54.25l-0.44-0.32
				c0,0-4.33-27.93-15.07-28.54c-7.68-0.44-11.19,14.73-12.56,23.4c0.89,8.44,2.12,16.86,3.8,25.21c1.06,4.15,2.16,8.59,3.15,13.19
				c2.32,10.94,3.52,20.68,1.27,27.7c-2.06,7.01-7.55,11.3-14.33,11.35c-6.43,0.03-11.81-3.78-14.13-10.16
				c-2.48-6.38-1.9-15.34-0.03-25.54l-0.05,0l0.16-0.59c0.16-0.85,0.33-1.71,0.5-2.58c0.97-4.84,2.07-9.5,3.12-13.82
				c1.56-8.5,2.68-17.05,3.44-25.63c-0.01-0.02-0.13-0.54-0.34-1.44c-0.22-0.9-0.54-2.17-0.96-3.7c-0.83-3.06-2.02-7.13-3.5-11.26
				c-2.95-8.26-7.01-16.74-11.5-17.73c-9.01-1.98-12.64,25.58-12.64,25.58c0.48,2.44,1.02,4.88,1.6,7.31
				c1.06,3.41,2.15,7.07,3.13,10.87c2.31,9.01,3.49,17.04,1.24,22.82c-2.07,5.78-7.56,9.32-14.34,9.36
				c-6.43,0.04-11.8-3.1-14.12-8.36c-2.47-5.26-1.88-12.64,0-21.04l-0.05,0l0.16-0.49c0.17-0.7,0.33-1.41,0.5-2.13
				c0.98-3.99,2.08-7.83,3.14-11.39c1.14-5.09,2.05-10.2,2.76-15.33c0,0-5.4-32.26-17.64-51.18c-1.37-2.12-2.5-4.64-3.43-7.47
				c-7.38-17.37-2.14-49-2.14-49c-0.03-5.2,0.58-10.29,1.79-15.22c-1.76-2.59-3.18-5.4-3.39-6.68c-0.67-4.19-1.69-11.21,0.85-14.97
				c2.66-3.95,8.23-6.24,11.79-9.76c5.11-5.05,5.78-12.27,11.67-16.8c5.34-4.11,13.58-4.95,20.05-7.96c4.5-2.1,8.14-5.25,12.96-6.88
				c4.54-1.54,9.68-1.59,14.45-2.65c9.75-2.16,17.9-8.47,28.05-8.56c2.34-0.02,4.7,0.31,6.82,1.08c1.59,0.57,10.51,3.15,12.06,3.78
				c12.98,5.28,23.95-3.96,35.26,3.2c2.92,1.85,4.92,4.5,8.08,6.11c3.61,1.84,8.19,2.08,12.35,3.02
				c7.25,1.65,13.49,5.68,16.83,10.85c2.02,3.14,3.18,6.84,6.79,8.99c2.84,1.69,6.81,2.15,9.25,4.17c5.68,4.7-1.23,13.37,3.91,18.42
				c1.2,1.18,2.95,1.99,4.12,3.19C993.49,71.26,992.94,74.7,992.17,77.73z M968.34,140.95l-0.38,0.4c0.19,0.73,0.38,1.35,0.57,2.18
				L968.34,140.95z"/>
		</g>
	</g>
	<g>
		<g>
			<defs>
				<rect id="SVGID_00000029046400154093878410000009728320160232022172_" x="704.91" y="582.65" width="517.17" height="202.45"/>
			</defs>
			<clipPath id="SVGID_00000150822511720885080960000016477843282072463275_">
				<use xlink:href="#SVGID_00000029046400154093878410000009728320160232022172_"  style="overflow:visible;"/>
			</clipPath>
			<g style="clip-path:url(#SVGID_00000150822511720885080960000016477843282072463275_);">
				<defs>
					<rect id="SVGID_00000157304789196390549780000014950746649508718501_" x="704.91" y="582.65" width="517.17" height="202.45"/>
				</defs>
				<clipPath id="SVGID_00000129898028156048400820000016905660922824852640_">
					<use xlink:href="#SVGID_00000157304789196390549780000014950746649508718501_"  style="overflow:visible;"/>
				</clipPath>
				<path style="clip-path:url(#SVGID_00000129898028156048400820000016905660922824852640_);" d="M1036.98,638.18l-3.25-2.12
					c-2.04-1.34-3.48-2.66-4.35-3.95c-0.86-1.29-1.29-2.78-1.29-4.47c0-2.53,0.81-4.58,2.44-6.16c1.63-1.58,3.75-2.37,6.35-2.37
					c2.49,0,4.78,0.75,6.85,2.26v5.22c-2.15-2.23-4.46-3.34-6.94-3.34c-1.39,0-2.54,0.35-3.44,1.04c-0.9,0.69-1.35,1.58-1.35,2.67
					c0,0.96,0.33,1.86,0.99,2.7c0.66,0.84,1.72,1.72,3.19,2.65l3.26,2.08c3.64,2.34,5.46,5.32,5.46,8.93c0,2.57-0.8,4.67-2.4,6.28
					c-1.6,1.61-3.68,2.41-6.25,2.41c-2.95,0-5.63-0.97-8.05-2.92v-5.84c2.31,3.15,4.98,4.72,8.01,4.72c1.34,0,2.45-0.4,3.34-1.2
					c0.89-0.8,1.33-1.81,1.33-3.01C1040.9,641.79,1039.59,639.93,1036.98,638.18"/>
				<polygon style="clip-path:url(#SVGID_00000129898028156048400820000016905660922824852640_);" points="1049.31,619.52 
					1066.22,619.52 1066.22,623.61 1053.58,623.61 1053.58,633.41 1065.8,633.41 1065.8,637.52 1053.58,637.52 1053.58,647.5 
					1066.63,647.5 1066.63,651.59 1049.31,651.59 				"/>
				<path style="clip-path:url(#SVGID_00000129898028156048400820000016905660922824852640_);" d="M1080.4,619.34h3l13.38,32.29
					h-4.37l-3.98-9.52h-12.73l-3.73,9.52h-4.39L1080.4,619.34z M1086.67,638.03l-4.81-11.63l-4.46,11.63H1086.67z"/>
				<polygon style="clip-path:url(#SVGID_00000129898028156048400820000016905660922824852640_);" points="1092.82,619.48 
					1117.74,619.48 1117.74,623.57 1107.34,623.57 1107.34,651.63 1103.05,651.63 1103.05,623.57 1092.82,623.57 				"/>
				<polygon style="clip-path:url(#SVGID_00000129898028156048400820000016905660922824852640_);" points="1118.93,619.48 
					1143.85,619.48 1143.85,623.57 1133.45,623.57 1133.45,651.63 1129.15,651.63 1129.15,623.57 1118.93,623.57 				"/>
				<polygon style="clip-path:url(#SVGID_00000129898028156048400820000016905660922824852640_);" points="1147.58,619.52 
					1151.85,619.52 1151.85,647.45 1165.28,647.45 1165.28,651.63 1147.58,651.63 				"/>
				<polygon style="clip-path:url(#SVGID_00000129898028156048400820000016905660922824852640_);" points="1168.71,619.52 
					1185.62,619.52 1185.62,623.61 1172.98,623.61 1172.98,633.41 1185.2,633.41 1185.2,637.52 1172.98,637.52 1172.98,647.5 
					1186.03,647.5 1186.03,651.59 1168.71,651.59 				"/>
				<path style="clip-path:url(#SVGID_00000129898028156048400820000016905660922824852640_);" d="M1039.11,659.92h3l13.38,32.29
					h-4.37l-3.98-9.52h-12.73l-3.73,9.52h-4.39L1039.11,659.92z M1045.39,678.61l-4.81-11.63l-4.46,11.63H1045.39z"/>
				<path style="clip-path:url(#SVGID_00000129898028156048400820000016905660922824852640_);" d="M1058.58,692.21V660.1h7.47
					c3.02,0,5.41,0.8,7.19,2.41c1.77,1.61,2.66,3.78,2.66,6.53c0,1.87-0.43,3.49-1.3,4.85c-0.87,1.36-2.11,2.38-3.74,3.06
					c0.95,0.67,1.89,1.59,2.8,2.76c0.91,1.16,2.19,3.19,3.84,6.09c1.04,1.82,1.87,3.19,2.5,4.11l1.58,2.3h-5.08l-1.3-2.12
					c-0.04-0.08-0.13-0.21-0.26-0.39l-0.83-1.26l-1.32-2.35l-1.43-2.51c-0.88-1.32-1.69-2.37-2.42-3.15
					c-0.73-0.78-1.4-1.34-1.99-1.69c-0.59-0.34-1.59-0.52-2.98-0.52h-1.11v13.98H1058.58z M1064.13,664.01h-1.28v10.14h1.62
					c2.16,0,3.65-0.2,4.45-0.6c0.8-0.4,1.43-1,1.88-1.8c0.45-0.81,0.67-1.72,0.67-2.75c0-1.01-0.25-1.93-0.75-2.75
					c-0.5-0.82-1.2-1.4-2.1-1.74C1067.72,664.18,1066.22,664.01,1064.13,664.01"/>
				<polygon style="clip-path:url(#SVGID_00000129898028156048400820000016905660922824852640_);" points="1078.09,660.06 
					1103.01,660.06 1103.01,664.15 1092.61,664.15 1092.61,692.21 1088.32,692.21 1088.32,664.15 1078.09,664.15 				"/>
				<polygon style="clip-path:url(#SVGID_00000129898028156048400820000016905660922824852640_);" points="1053.31,700.68 
					1057.3,700.68 1057.3,732.79 1053.01,732.79 1053.01,707.81 1043.84,720.22 1043.05,720.22 1033.77,707.81 1033.77,732.79 
					1029.5,732.79 1029.5,700.68 1033.54,700.68 1043.46,713.87 				"/>
				<path style="clip-path:url(#SVGID_00000129898028156048400820000016905660922824852640_);" d="M1079.72,700.68h4.29v18.23
					c0,2.47-0.17,4.33-0.5,5.59c-0.33,1.26-0.75,2.3-1.24,3.14c-0.49,0.83-1.09,1.58-1.8,2.24c-2.36,2.19-5.45,3.29-9.27,3.29
					c-3.89,0-7-1.09-9.35-3.26c-0.71-0.67-1.31-1.43-1.8-2.26c-0.49-0.84-0.9-1.86-1.22-3.07c-0.32-1.21-0.48-3.11-0.48-5.7v-18.18
					h4.29v18.23c0,3.02,0.32,5.12,0.96,6.3c0.64,1.18,1.62,2.13,2.93,2.84c1.31,0.71,2.85,1.07,4.63,1.07c2.53,0,4.6-0.71,6.19-2.14
					c0.84-0.77,1.44-1.67,1.82-2.71c0.37-1.04,0.56-2.83,0.56-5.36V700.68z"/>
				<path style="clip-path:url(#SVGID_00000129898028156048400820000016905660922824852640_);" d="M1096.92,719.34l-3.25-2.12
					c-2.04-1.34-3.48-2.66-4.35-3.95s-1.29-2.78-1.29-4.47c0-2.53,0.81-4.58,2.44-6.16c1.63-1.58,3.75-2.37,6.35-2.37
					c2.49,0,4.78,0.75,6.85,2.26v5.22c-2.15-2.23-4.46-3.34-6.94-3.34c-1.39,0-2.54,0.35-3.44,1.04c-0.9,0.69-1.35,1.58-1.35,2.67
					c0,0.96,0.33,1.86,0.99,2.7c0.66,0.84,1.72,1.72,3.19,2.65l3.26,2.08c3.64,2.34,5.46,5.32,5.46,8.93c0,2.57-0.8,4.67-2.4,6.28
					c-1.6,1.61-3.68,2.41-6.25,2.41c-2.95,0-5.63-0.97-8.05-2.92v-5.84c2.31,3.15,4.98,4.72,8.01,4.72c1.34,0,2.45-0.4,3.34-1.2
					c0.89-0.8,1.33-1.8,1.33-3.01C1100.85,722.95,1099.54,721.09,1096.92,719.34"/>
				<polygon style="clip-path:url(#SVGID_00000129898028156048400820000016905660922824852640_);" points="1109.17,700.68 
					1126.08,700.68 1126.08,704.78 1113.44,704.78 1113.44,714.57 1125.66,714.57 1125.66,718.68 1113.44,718.68 1113.44,728.66 
					1126.49,728.66 1126.49,732.75 1109.17,732.75 				"/>
				<path style="clip-path:url(#SVGID_00000129898028156048400820000016905660922824852640_);" d="M1151.4,700.68h4.29v18.23
					c0,2.47-0.17,4.33-0.5,5.59c-0.33,1.26-0.75,2.3-1.24,3.14c-0.49,0.83-1.09,1.58-1.8,2.24c-2.36,2.19-5.45,3.29-9.27,3.29
					c-3.89,0-7-1.09-9.35-3.26c-0.71-0.67-1.31-1.43-1.8-2.26c-0.49-0.84-0.9-1.86-1.22-3.07c-0.32-1.21-0.48-3.11-0.48-5.7v-18.18
					h4.29v18.23c0,3.02,0.32,5.12,0.96,6.3c0.64,1.18,1.62,2.13,2.93,2.84c1.31,0.71,2.85,1.07,4.63,1.07c2.53,0,4.6-0.71,6.19-2.14
					c0.84-0.77,1.44-1.67,1.82-2.71c0.37-1.04,0.55-2.83,0.55-5.36V700.68z"/>
				<polygon style="clip-path:url(#SVGID_00000129898028156048400820000016905660922824852640_);" points="1184.94,700.68 
					1188.93,700.68 1188.93,732.79 1184.64,732.79 1184.64,707.81 1175.47,720.22 1174.68,720.22 1165.4,707.81 1165.4,732.79 
					1161.13,732.79 1161.13,700.68 1165.17,700.68 1175.09,713.87 				"/>
				<polygon style="clip-path:url(#SVGID_00000129898028156048400820000016905660922824852640_);" points="880.06,709.57 
					836.62,709.57 829.76,727.6 886.79,727.6 				"/>
				<polygon style="clip-path:url(#SVGID_00000129898028156048400820000016905660922824852640_);" points="873.28,691.01 
					858.63,651.7 843.84,691.01 				"/>
				<path style="clip-path:url(#SVGID_00000129898028156048400820000016905660922824852640_);" d="M816.83,684.94
					c-0.01-0.01-0.01-0.02-0.02-0.03c-2.62-4.06-6.24-7.65-10.86-10.76s-10.78-6.6-18.47-10.49c-4.33-2.23-7.34-4.12-9.02-5.67
					s-2.53-3.39-2.53-5.51c0-2.28,0.84-4.19,2.53-5.75c1.68-1.55,4.4-2.33,8.15-2.33c5.72,0,11.1,1.24,16.13,3.73
					c5.03,2.49,9.58,5.31,13.67,8.47v-25.24c-1.15-0.83-3.27-1.97-6.35-3.42c-3.08-1.45-6.99-2.76-11.73-3.92
					c-4.74-1.17-9.9-1.75-15.48-1.75c-7.84,0-14.48,1.4-19.92,4.19c-5.44,2.8-9.48,6.54-12.12,11.22
					c-2.65,4.69-3.97,9.93-3.97,15.73c0,6.01,1.31,11.21,3.93,15.61c2.62,4.4,6,8.07,10.14,10.99c4.14,2.93,8.95,5.63,14.43,8.12
					c4.95,2.12,8.73,4.18,11.33,6.17c2.6,1.99,3.9,4.44,3.9,7.34c0,1.61-0.76,3.33-2.27,5.17c-1.52,1.84-4.85,2.76-9.99,2.76
					c-5.58,0-10.81-1.11-15.7-3.34c-4.88-2.23-9.85-5.02-14.9-8.39v26.41c5.39,2.54,10.57,4.45,15.55,5.75
					c4.98,1.29,8.97,2.08,11.98,2.37c3.01,0.28,5.54,0.43,7.61,0.43c5.54,0,10.61-0.73,15.21-2.2L816.83,684.94z"/>
				<polygon style="clip-path:url(#SVGID_00000129898028156048400820000016905660922824852640_);" points="982.72,622.89 
					951.83,663.28 921.09,622.89 893.74,622.89 893.74,669.02 918.94,730.55 923.04,730.55 923.04,668.17 950.31,704.29 
					952.7,704.29 979.9,668.17 979.9,730.55 1010.06,730.55 1010.06,622.89 				"/>
			</g>
		</g>
	</g>
	<rect x="88.38" y="2.63" class="st12" width="1074.94" height="166.36"/>
	<text transform="matrix(1 0 0 1 183.3975 148.3729)" class="st13 st14">NEW VOICES</text>
	<path class="st4" d="M982.98,433.15c19.69-61.07-61.74-63.22-61.74-63.22c22.42-94.99-61.74-74.15-61.74-74.15
		c-4.98-81.03-70.7-52.19-70.7-52.19c-22.9-74.16-72.7-43.95-72.7-43.95c0-45.32-103.57-120.86-162.57-10.99
		c-59-109.87-162.57-34.33-162.57,10.99c0,0-49.79-30.21-72.7,43.95c0,0-65.72-28.84-70.7,52.19c0,0-84.16-20.83-61.74,74.15
		c0,0-81.43,2.15-61.74,63.22c0,0-117.51-8.09-58.75,73.93c0,33.33,49.58,39.35,49.58,39.35c19.75,43.21,86.42,19.75,86.42,19.75
		c24.69,46.91,90.12,0,90.12,0c29.76,39.51,88.89-7.41,88.89-7.41c49.38,43.21,82.72,13.58,82.72,13.58s29.39,23.46,76.3,2.47
		c0,0,14.55,16.05,62.83,0c0,0,28.5,16.05,58.13-2.47c0,0,33.33,29.63,82.72-13.58c0,0,59.13,46.91,88.89,7.41
		c0,0,65.43,46.91,90.12,0c0,0,66.67,23.46,86.42-19.75c0,0,33.28-6.02,33.28-39.35C1100.49,425.06,982.98,433.15,982.98,433.15z"/>
	<path class="st5" d="M907.85,432.06c15.75-48.02-49.4-49.72-49.4-49.72c17.94-74.7-49.4-58.32-49.4-58.32
		c-3.98-63.72-56.57-41.04-56.57-41.04c-18.33-58.32-58.16-34.56-58.16-34.56c0-35.64-82.86-95.04-130.07-8.64
		c-47.21-86.4-130.07-27-130.07,8.64c0,0-39.84-23.76-58.16,34.56c0,0-52.59-22.68-56.57,41.04c0,0-67.34-16.38-49.4,58.32
		c0,0-65.15,1.69-49.4,49.72c0,0-94.02-6.36-47.01,58.14c0,26.21,39.66,30.95,39.66,30.95c15.8,33.98,69.14,15.53,69.14,15.53
		c19.76,36.89,72.11,0,72.11,0c23.81,31.07,71.12-5.83,71.12-5.83c39.51,33.98,66.18,10.68,66.18,10.68s23.51,18.45,61.05,1.94
		c0,0,11.64,12.62,50.27,0c0,0,22.8,12.62,46.51-1.94c0,0,26.67,23.3,66.18-10.68c0,0,47.31,36.89,71.12,5.83
		c0,0,52.35,36.89,72.11,0c0,0,53.34,18.45,69.14-15.53c0,0,26.63-4.73,26.63-30.95C1001.87,425.7,907.85,432.06,907.85,432.06z"/>
	<path class="st8" d="M637.3,644.62c-23.76,77.14,30.61,99.02,30.61,99.02c33.72-0.78,138.81-13.65,156.61,48.36l-489.01-0.26
		c17.81-62.01,122.9-49.14,156.61-48.36c0,0,54.37-21.88,30.61-99.02c0,0,33.45,3.46,53.05-11.52
		C595.4,617.86,637.3,644.62,637.3,644.62z"/>
	<path class="st8" d="M579.85,668.17c47.33-3.79,127.75-76.55,142.9-112.93c18.03-43.27,14.4-181.14,14.4-181.14H422.54
		c0,0-3.63,137.87,14.4,181.14c15.12,36.29,95.17,108.77,142.54,112.89l0.02,0.04l0.02-0.03
		C579.63,668.15,579.74,668.16,579.85,668.17l-0.16-0.31"/>
	<polygon class="st9" points="547.86,395.91 445.11,374.02 480.91,314.96 	"/>
	<polygon class="st9" points="723.87,389.49 621.85,375.29 664.08,305.62 	"/>
	<polygon class="st5" points="575.8,392.43 559.94,364.95 591.66,364.95 	"/>
	<path d="M705.17,719.39c7.9-59.8,6.45-69.52-14.85-128.28l0.64,1.45c-20.21-44.49-10.17-79.05,21.94-108.92l-1.17,1.16
		c63.04-60.68-28.62-140.15-28.62-140.15s-101.13,48.92-101.27,66.04v2.05c-0.14-17.12-105.3-66.04-105.3-66.04
		c0.69-0.95-91.21,78.85-28.62,140.15c32.11,27.72,39.28,67.3,19.07,108.58c-19.16,52.91-30.42,64.57-22.79,124.96
		c-7.87-59.74-65.2-58.97-43.84-117.94l0,0c20.21-44.49,13-85.74-19.11-115.61c-76.44-95.82,69.7-203.29,69.7-203.29
		s128.15,74.1,124.78,99.32c-3.37-25.22,124.91-104.44,124.91-104.44s146.14,107.46,69.7,203.29
		c-32.11,29.87-39.32,71.12-19.11,115.61l-0.52-1.01C771.46,653.6,713.05,659.55,705.17,719.39z"/>
	
		<ellipse transform="matrix(0.9959 -0.091 0.091 0.9959 -40.4547 61.9815)" class="st16" cx="659.59" cy="474.7" rx="18.19" ry="16.48"/>
	<circle class="st17" cx="659.74" cy="472.29" r="11.79"/>
	<circle class="st18" cx="650.46" cy="468.69" r="5.56"/>
	<g>
		<path class="st17" d="M616.26,477.73c16.13-11.49,67.08-22.26,78.18-10.77c-0.54,6.98-9.92,21.27-9.92,21.27
			c5.36-0.66,18.7-23.52,18.7-23.52C681.03,448.01,625.57,458.34,616.26,477.73z"/>
	</g>
	<circle class="st18" cx="667.92" cy="480.22" r="3.81"/>
	<path class="st19" d="M678.32,486.45c-17.55,9.19-36.47,2.67-36.47,2.67"/>
	<path class="st20" d="M703.3,426.25c0,0-59.28-2.4-86.4,19.2c0,0-0.72,4.8,4.8,0C623.31,442.88,675.38,422.26,703.3,426.25"/>
	
		<ellipse transform="matrix(0.091 -0.9959 0.9959 0.091 -15.9298 927.5314)" class="st16" cx="500.1" cy="472.49" rx="16.48" ry="18.19"/>
	<circle class="st17" cx="499.95" cy="470.08" r="11.79"/>
	<circle class="st18" cx="509.23" cy="466.49" r="5.56"/>
	<g>
		<path class="st17" d="M543.43,475.52c-16.13-11.49-67.08-22.26-78.18-10.77c0.54,6.98,9.92,21.27,9.92,21.27
			c-5.36-0.66-18.7-23.52-18.7-23.52C478.66,445.81,534.12,456.13,543.43,475.52z"/>
	</g>
	<circle class="st18" cx="491.78" cy="478.01" r="3.81"/>
	<path class="st19" d="M481.37,484.24c17.55,9.19,36.46,2.67,36.46,2.67"/>
	<path class="st20" d="M456.39,424.05c0,0,59.28-2.4,86.4,19.2c0,0,0.72,4.8-4.8,0C536.38,440.67,484.32,420.05,456.39,424.05"/>
	<ellipse class="st16" cx="582.42" cy="432.99" rx="8.42" ry="14.59"/>
	<line class="st21" x1="527.87" y1="693.12" x2="631.52" y2="693.12"/>
	<text transform="matrix(1 0 0 1 1045.2423 308.0958)"><tspan x="0" y="0" class="st1 st13 st23">Opening: </tspan><tspan x="2.92" y="39.6" class="st1 st13 st23">12-01-20</tspan><tspan x="16.3" y="79.2" class="st1 st13 st23">7-9 PM</tspan></text>
	<text transform="matrix(1 0 0 1 60.6151 521.1411)"><tspan x="0" y="0" class="st1 st13 st23">12/01/20 </tspan><tspan x="60.54" y="39.6" class="st1 st13 st23">-</tspan><tspan x="3.5" y="79.2" class="st1 st13 st23">03/07/21</tspan></text>
</g>
</svg>
